<svg xmlns="http://www.w3.org/2000/svg" width="59" height="59" viewBox="0 0 59 59"><g><g opacity=".5"><path fill="#e12457" d="M29.5 0C45.792 0 59 13.207 59 29.5 59 45.792 45.792 59 29.5 59S0 45.792 0 29.5C0 13.207 13.208 0 29.5 0z"/></g><g><path fill="#fff" d="M37.26 29.28a.787.787 0 0 1 1.112 1.113l-7.978 7.978a.786.786 0 0 1-.964.117.78.78 0 0 1-.862-.164l-7.893-7.893a.78.78 0 0 1 1.104-1.104l7.717 7.717zm-7.979.112l7.978-7.979a.788.788 0 0 1 1.113 1.113l-7.978 7.979a.787.787 0 0 1-1.113-1.113z"/></g></g></svg>